<svg width="62" height="11" viewBox="0 0 62 11" fill="none" xmlns="http://www.w3.org/2000/svg">
<path d="M8.94141 2.78711L7.78711 3.92969C7.05664 3.15625 6.20508 2.76953 5.23242 2.76953C4.38477 2.76953 3.67383 3.05078 3.09961 3.61328C2.5293 4.17578 2.24414 4.85938 2.24414 5.66406C2.24414 6.49609 2.54102 7.20117 3.13477 7.7793C3.72852 8.35742 4.46094 8.64648 5.33203 8.64648C5.89844 8.64648 6.375 8.52734 6.76172 8.28906C7.15234 8.05078 7.4668 7.67773 7.70508 7.16992H5.20898V5.62891H9.54492L9.55664 5.99219C9.55664 6.74609 9.36133 7.46094 8.9707 8.13672C8.58008 8.8125 8.07422 9.32812 7.45312 9.68359C6.83203 10.0391 6.10352 10.2168 5.26758 10.2168C4.37305 10.2168 3.57422 10.0234 2.87109 9.63672C2.17188 9.24609 1.61719 8.69141 1.20703 7.97266C0.800781 7.25391 0.597656 6.47852 0.597656 5.64648C0.597656 4.50586 0.974609 3.51367 1.72852 2.66992C2.62305 1.66602 3.78711 1.16406 5.2207 1.16406C5.9707 1.16406 6.67188 1.30273 7.32422 1.58008C7.875 1.81445 8.41406 2.2168 8.94141 2.78711ZM10.8809 3.625H12.498V6.69531C12.498 7.29297 12.5391 7.70898 12.6211 7.94336C12.7031 8.17383 12.834 8.35352 13.0137 8.48242C13.1973 8.61133 13.4219 8.67578 13.6875 8.67578C13.9531 8.67578 14.1777 8.61328 14.3613 8.48828C14.5488 8.35938 14.6875 8.17188 14.7773 7.92578C14.8438 7.74219 14.877 7.34961 14.877 6.74805V3.625H16.4824V6.32617C16.4824 7.43945 16.3945 8.20117 16.2188 8.61133C16.0039 9.11133 15.6875 9.49609 15.2695 9.76562C14.8516 10.0312 14.3203 10.1641 13.6758 10.1641C12.9766 10.1641 12.4102 10.0078 11.9766 9.69531C11.5469 9.38281 11.2441 8.94727 11.0684 8.38867C10.9434 8.00195 10.8809 7.29883 10.8809 6.2793V3.625ZM17.918 3.625H19.5234V10H17.918V3.625ZM19.0078 0.162109H20.9004L18.7559 2.45898H17.6074L19.0078 0.162109ZM20.9648 3.625H22.5703V4.35742C22.8438 4.05664 23.1465 3.83203 23.4785 3.68359C23.8145 3.53516 24.1797 3.46094 24.5742 3.46094C24.9727 3.46094 25.332 3.55859 25.6523 3.75391C25.9727 3.94922 26.2305 4.23438 26.4258 4.60938C26.6797 4.23438 26.9902 3.94922 27.3574 3.75391C27.7285 3.55859 28.1328 3.46094 28.5703 3.46094C29.0234 3.46094 29.4219 3.56641 29.7656 3.77734C30.1094 3.98828 30.3555 4.26367 30.5039 4.60352C30.6562 4.94336 30.7324 5.49609 30.7324 6.26172V10H29.1211V6.76562C29.1211 6.04297 29.0312 5.55469 28.8516 5.30078C28.6719 5.04297 28.4023 4.91406 28.043 4.91406C27.7695 4.91406 27.5234 4.99219 27.3047 5.14844C27.0898 5.30469 26.9297 5.52148 26.8242 5.79883C26.7188 6.07227 26.666 6.51367 26.666 7.12305V10H25.0547V6.91211C25.0547 6.3418 25.0117 5.92969 24.9258 5.67578C24.8438 5.41797 24.7188 5.22656 24.5508 5.10156C24.3828 4.97656 24.1797 4.91406 23.9414 4.91406C23.6758 4.91406 23.4336 4.99414 23.2148 5.1543C23 5.31055 22.8379 5.53125 22.7285 5.81641C22.623 6.10156 22.5703 6.55078 22.5703 7.16406V10H20.9648V3.625ZM36.9727 3.625H38.5664V10H36.9727V9.32617C36.6602 9.62305 36.3457 9.83789 36.0293 9.9707C35.7168 10.0996 35.377 10.1641 35.0098 10.1641C34.1855 10.1641 33.4727 9.8457 32.8711 9.20898C32.2695 8.56836 31.9688 7.77344 31.9688 6.82422C31.9688 5.83984 32.2598 5.0332 32.8418 4.4043C33.4238 3.77539 34.1309 3.46094 34.9629 3.46094C35.3457 3.46094 35.7051 3.5332 36.041 3.67773C36.377 3.82227 36.6875 4.03906 36.9727 4.32812V3.625ZM35.291 4.9375C34.7949 4.9375 34.3828 5.11328 34.0547 5.46484C33.7266 5.8125 33.5625 6.25977 33.5625 6.80664C33.5625 7.35742 33.7285 7.81055 34.0605 8.16602C34.3965 8.52148 34.8086 8.69922 35.2969 8.69922C35.8008 8.69922 36.2188 8.52539 36.5508 8.17773C36.8828 7.82617 37.0488 7.36719 37.0488 6.80078C37.0488 6.24609 36.8828 5.79688 36.5508 5.45312C36.2188 5.10938 35.7988 4.9375 35.291 4.9375ZM39.8086 3.625H41.1797V4.42773C41.3281 4.11133 41.5254 3.87109 41.7715 3.70703C42.0176 3.54297 42.2871 3.46094 42.5801 3.46094C42.7871 3.46094 43.0039 3.51562 43.2305 3.625L42.7324 5.00195C42.5449 4.9082 42.3906 4.86133 42.2695 4.86133C42.0234 4.86133 41.8145 5.01367 41.6426 5.31836C41.4746 5.62305 41.3906 6.2207 41.3906 7.11133L41.3965 7.42188V10H39.8086V3.625ZM44.2031 10V1.38086H45.5566C46.3418 1.38086 46.916 1.43164 47.2793 1.5332C47.7949 1.66992 48.2051 1.92383 48.5098 2.29492C48.8145 2.66602 48.9668 3.10352 48.9668 3.60742C48.9668 3.93555 48.8965 4.23438 48.7559 4.50391C48.6191 4.76953 48.3945 5.01953 48.082 5.25391C48.6055 5.5 48.9883 5.80859 49.2305 6.17969C49.4727 6.54688 49.5938 6.98242 49.5938 7.48633C49.5938 7.9707 49.4688 8.41211 49.2188 8.81055C48.9688 9.20898 48.6465 9.50781 48.252 9.70703C47.8574 9.90234 47.3125 10 46.6172 10H44.2031ZM45.8438 2.94531V4.76172H46.2012C46.5996 4.76172 46.8945 4.67773 47.0859 4.50977C47.2812 4.3418 47.3789 4.11328 47.3789 3.82422C47.3789 3.55469 47.2871 3.3418 47.1035 3.18555C46.9199 3.02539 46.6406 2.94531 46.2656 2.94531H45.8438ZM45.8438 6.22656V8.43555H46.2539C46.9336 8.43555 47.3906 8.34961 47.625 8.17773C47.8633 8.00586 47.9824 7.75586 47.9824 7.42773C47.9824 7.05664 47.8438 6.76367 47.5664 6.54883C47.2891 6.33398 46.8281 6.22656 46.1836 6.22656H45.8438ZM53.9824 3.46094C54.584 3.46094 55.1484 3.61133 55.6758 3.91211C56.207 4.21289 56.6211 4.62109 56.918 5.13672C57.2148 5.65234 57.3633 6.20898 57.3633 6.80664C57.3633 7.4082 57.2129 7.9707 56.9121 8.49414C56.6152 9.01758 56.209 9.42773 55.6934 9.72461C55.1777 10.0176 54.6094 10.1641 53.9883 10.1641C53.0742 10.1641 52.293 9.83984 51.6445 9.19141C51 8.53906 50.6777 7.74805 50.6777 6.81836C50.6777 5.82227 51.043 4.99219 51.7734 4.32812C52.4141 3.75 53.1504 3.46094 53.9824 3.46094ZM54.0059 4.9668C53.5098 4.9668 53.0957 5.14062 52.7637 5.48828C52.4355 5.83203 52.2715 6.27344 52.2715 6.8125C52.2715 7.36719 52.4336 7.81641 52.7578 8.16016C53.0859 8.50391 53.5 8.67578 54 8.67578C54.5 8.67578 54.916 8.50195 55.248 8.1543C55.5801 7.80664 55.7461 7.35938 55.7461 6.8125C55.7461 6.26562 55.582 5.82227 55.2539 5.48242C54.9297 5.13867 54.5137 4.9668 54.0059 4.9668ZM58.8691 1.27539H60.4629V3.625H61.4121V5.00195H60.4629V10H58.8691V5.00195H58.0488V3.625H58.8691V1.27539Z" fill="#1B1464"/>
</svg>
